<svg width="20" height="20" viewBox="0 0 20 20" fill="none" xmlns="http://www.w3.org/2000/svg">
<path fill-rule="evenodd" clip-rule="evenodd" d="M10 20C15.5228 20 20 15.5228 20 10C20 4.47715 15.5228 0 10 0C4.47715 0 0 4.47715 0 10C0 15.5228 4.47715 20 10 20Z" fill="#F8931F"/>
<path fill-rule="evenodd" clip-rule="evenodd" d="M12.5724 13.1861C12.4917 13.4639 12.31 13.6928 12.061 13.8306C11.8119 13.9686 11.5254 13.999 11.2541 13.9163L8.53762 13.0882L9.14282 11.0086L11.8591 11.8367H11.8592C12.4192 12.0075 12.7393 12.6128 12.5724 13.1861ZM13.4886 8.92428C13.6233 9.17921 13.653 9.47245 13.5722 9.75029C13.4054 10.3234 12.8137 10.6508 12.2539 10.4804H12.2538L9.53744 9.65234L10.1424 7.5727L12.8589 8.40079C13.1302 8.48353 13.3538 8.66934 13.4886 8.92428ZM14.7046 8.25091C14.3941 7.66354 13.8787 7.23503 13.2535 7.04447L12.8941 6.93498L13.3972 5.20574L12.1063 4.81219L11.6032 6.54142L10.501 6.20543L11.0042 4.4762L10.695 4.3819L9.44214 4L8.95713 5.66683L7.43034 5.2014L6.99945 6.68241L8.52624 7.14795L6.95768 12.5386L5.43089 12.0732L5 13.5543L6.52669 14.0197L6.11741 15.4265L6.42657 15.5208L7.67941 15.9027L8.10692 14.4335L9.21169 14.7702L8.78418 16.2396L10.0699 16.6316L10.4974 15.1622L10.8594 15.2725C11.0901 15.3428 11.3257 15.3777 11.5599 15.3777C11.9603 15.3777 12.3568 15.2759 12.7188 15.0753C13.2927 14.7575 13.7112 14.2301 13.8975 13.59C14.0933 12.9167 13.9967 12.2251 13.6852 11.6558C14.2506 11.3537 14.7012 10.8278 14.8972 10.1542C15.0835 9.51412 15.015 8.83818 14.7046 8.25091Z" fill="white"/>
</svg>
