<svg width="224" height="12" viewBox="0 0 224 12" fill="none" xmlns="http://www.w3.org/2000/svg">
<path d="M0.996 9V1.152H5.736V2.328H2.388V4.548H5.244V5.724H2.388V9H0.996ZM9.71769 9.144C9.34969 9.144 8.99769 9.076 8.66169 8.94C8.32569 8.804 8.02569 8.604 7.76169 8.34C7.50569 8.076 7.30169 7.752 7.14969 7.368C6.99769 6.984 6.92169 6.548 6.92169 6.06C6.92169 5.572 6.99769 5.136 7.14969 4.752C7.30169 4.368 7.50569 4.044 7.76169 3.78C8.02569 3.516 8.32569 3.316 8.66169 3.18C8.99769 3.036 9.34969 2.964 9.71769 2.964C10.0857 2.964 10.4377 3.036 10.7737 3.18C11.1177 3.316 11.4177 3.516 11.6737 3.78C11.9297 4.044 12.1337 4.368 12.2857 4.752C12.4457 5.136 12.5257 5.572 12.5257 6.06C12.5257 6.548 12.4457 6.984 12.2857 7.368C12.1337 7.752 11.9297 8.076 11.6737 8.34C11.4177 8.604 11.1177 8.804 10.7737 8.94C10.4377 9.076 10.0857 9.144 9.71769 9.144ZM9.71769 8.016C10.1497 8.016 10.4897 7.84 10.7377 7.488C10.9857 7.128 11.1097 6.652 11.1097 6.06C11.1097 5.46 10.9857 4.984 10.7377 4.632C10.4897 4.272 10.1497 4.092 9.71769 4.092C9.28569 4.092 8.94569 4.272 8.69769 4.632C8.45769 4.984 8.33769 5.46 8.33769 6.06C8.33769 6.652 8.45769 7.128 8.69769 7.488C8.94569 7.84 9.28569 8.016 9.71769 8.016ZM14.3916 9V3.108H15.5316L15.6276 4.152H15.6756C15.8836 3.768 16.1356 3.476 16.4316 3.276C16.7276 3.068 17.0316 2.964 17.3436 2.964C17.6236 2.964 17.8476 3.004 18.0156 3.084L17.7756 4.284C17.6716 4.252 17.5756 4.228 17.4876 4.212C17.3996 4.196 17.2916 4.188 17.1636 4.188C16.9316 4.188 16.6876 4.28 16.4316 4.464C16.1756 4.64 15.9556 4.952 15.7716 5.4V9H14.3916ZM71.7134 11.424C71.5534 11.424 71.4134 11.412 71.2934 11.388C71.1734 11.372 71.0574 11.344 70.9454 11.304L71.1974 10.224C71.2534 10.24 71.3174 10.256 71.3894 10.272C71.4694 10.296 71.5454 10.308 71.6174 10.308C71.9294 10.308 72.1774 10.212 72.3614 10.02C72.5534 9.836 72.6974 9.596 72.7934 9.3L72.9014 8.928L70.5854 3.108H71.9894L73.0094 6C73.0974 6.256 73.1814 6.528 73.2614 6.816C73.3494 7.096 73.4374 7.376 73.5254 7.656H73.5734C73.6454 7.384 73.7174 7.108 73.7894 6.828C73.8694 6.54 73.9454 6.264 74.0174 6L74.9054 3.108H76.2374L74.1014 9.264C73.9814 9.6 73.8494 9.9 73.7054 10.164C73.5614 10.428 73.3934 10.652 73.2014 10.836C73.0174 11.028 72.8014 11.172 72.5534 11.268C72.3134 11.372 72.0334 11.424 71.7134 11.424ZM80.1005 9.144C79.7325 9.144 79.3805 9.076 79.0445 8.94C78.7085 8.804 78.4085 8.604 78.1445 8.34C77.8885 8.076 77.6845 7.752 77.5325 7.368C77.3805 6.984 77.3045 6.548 77.3045 6.06C77.3045 5.572 77.3805 5.136 77.5325 4.752C77.6845 4.368 77.8885 4.044 78.1445 3.78C78.4085 3.516 78.7085 3.316 79.0445 3.18C79.3805 3.036 79.7325 2.964 80.1005 2.964C80.4685 2.964 80.8205 3.036 81.1565 3.18C81.5005 3.316 81.8005 3.516 82.0565 3.78C82.3125 4.044 82.5165 4.368 82.6685 4.752C82.8285 5.136 82.9085 5.572 82.9085 6.06C82.9085 6.548 82.8285 6.984 82.6685 7.368C82.5165 7.752 82.3125 8.076 82.0565 8.34C81.8005 8.604 81.5005 8.804 81.1565 8.94C80.8205 9.076 80.4685 9.144 80.1005 9.144ZM80.1005 8.016C80.5325 8.016 80.8725 7.84 81.1205 7.488C81.3685 7.128 81.4925 6.652 81.4925 6.06C81.4925 5.46 81.3685 4.984 81.1205 4.632C80.8725 4.272 80.5325 4.092 80.1005 4.092C79.6685 4.092 79.3285 4.272 79.0805 4.632C78.8405 4.984 78.7205 5.46 78.7205 6.06C78.7205 6.652 78.8405 7.128 79.0805 7.488C79.3285 7.84 79.6685 8.016 80.1005 8.016ZM86.5264 9.144C85.8944 9.144 85.4344 8.944 85.1464 8.544C84.8584 8.136 84.7144 7.556 84.7144 6.804V3.108H86.0944V6.624C86.0944 7.112 86.1664 7.456 86.3104 7.656C86.4544 7.856 86.6864 7.956 87.0064 7.956C87.2624 7.956 87.4864 7.892 87.6784 7.764C87.8784 7.636 88.0904 7.428 88.3144 7.14V3.108H89.6944V9H88.5664L88.4584 8.136H88.4224C88.1664 8.44 87.8864 8.684 87.5824 8.868C87.2864 9.052 86.9344 9.144 86.5264 9.144ZM95.8168 9L94.2568 3.108H95.6488L96.3568 6.168C96.4208 6.448 96.4728 6.728 96.5128 7.008C96.5608 7.288 96.6128 7.572 96.6688 7.86H96.7168C96.7728 7.572 96.8288 7.288 96.8848 7.008C96.9488 6.728 97.0168 6.448 97.0888 6.168L97.8568 3.108H99.1168L99.8968 6.168C99.9688 6.448 100.037 6.728 100.101 7.008C100.165 7.288 100.229 7.572 100.293 7.86H100.341C100.397 7.572 100.449 7.288 100.497 7.008C100.545 6.728 100.597 6.448 100.653 6.168L101.361 3.108H102.657L101.157 9H99.5128L98.8288 6.252C98.7648 5.972 98.7048 5.696 98.6488 5.424C98.5928 5.144 98.5328 4.848 98.4688 4.536H98.4208C98.3648 4.848 98.3088 5.144 98.2528 5.424C98.1968 5.704 98.1368 5.984 98.0728 6.264L97.4008 9H95.8168ZM104.321 9V3.108H105.701V9H104.321ZM105.017 2.076C104.769 2.076 104.565 2.004 104.405 1.86C104.245 1.716 104.165 1.528 104.165 1.296C104.165 1.064 104.245 0.876 104.405 0.732C104.565 0.58 104.769 0.504 105.017 0.504C105.265 0.504 105.469 0.58 105.629 0.732C105.789 0.876 105.869 1.064 105.869 1.296C105.869 1.528 105.789 1.716 105.629 1.86C105.469 2.004 105.265 2.076 105.017 2.076ZM109.306 9.144C108.81 9.144 108.462 8.996 108.262 8.7C108.062 8.404 107.962 8 107.962 7.488V0.528H109.342V7.56C109.342 7.728 109.374 7.848 109.438 7.92C109.502 7.984 109.57 8.016 109.642 8.016C109.674 8.016 109.702 8.016 109.726 8.016C109.758 8.016 109.802 8.008 109.858 7.992L110.038 9.024C109.854 9.104 109.61 9.144 109.306 9.144ZM113.064 9.144C112.568 9.144 112.22 8.996 112.02 8.7C111.82 8.404 111.72 8 111.72 7.488V0.528H113.1V7.56C113.1 7.728 113.132 7.848 113.196 7.92C113.26 7.984 113.328 8.016 113.4 8.016C113.432 8.016 113.46 8.016 113.484 8.016C113.516 8.016 113.56 8.008 113.616 7.992L113.796 9.024C113.612 9.104 113.368 9.144 113.064 9.144ZM120.432 11.604C120.08 11.604 119.752 11.572 119.448 11.508C119.152 11.444 118.896 11.348 118.68 11.22C118.464 11.092 118.292 10.932 118.164 10.74C118.044 10.548 117.984 10.324 117.984 10.068C117.984 9.82 118.056 9.588 118.2 9.372C118.344 9.164 118.552 8.976 118.824 8.808V8.76C118.672 8.664 118.544 8.536 118.44 8.376C118.344 8.216 118.296 8.016 118.296 7.776C118.296 7.544 118.36 7.336 118.488 7.152C118.624 6.96 118.776 6.804 118.944 6.684V6.636C118.744 6.484 118.564 6.276 118.404 6.012C118.252 5.74 118.176 5.428 118.176 5.076C118.176 4.74 118.24 4.44 118.368 4.176C118.496 3.912 118.664 3.692 118.872 3.516C119.088 3.332 119.336 3.196 119.616 3.108C119.896 3.012 120.192 2.964 120.504 2.964C120.664 2.964 120.816 2.98 120.96 3.012C121.112 3.036 121.248 3.068 121.368 3.108H123.48V4.128H122.4C122.496 4.24 122.576 4.384 122.64 4.56C122.704 4.728 122.736 4.916 122.736 5.124C122.736 5.452 122.676 5.74 122.556 5.988C122.444 6.236 122.288 6.444 122.088 6.612C121.888 6.78 121.652 6.908 121.38 6.996C121.108 7.084 120.816 7.128 120.504 7.128C120.376 7.128 120.244 7.116 120.108 7.092C119.972 7.068 119.836 7.028 119.7 6.972C119.612 7.052 119.54 7.132 119.484 7.212C119.436 7.292 119.412 7.4 119.412 7.536C119.412 7.704 119.48 7.836 119.616 7.932C119.76 8.028 120.012 8.076 120.372 8.076H121.416C122.128 8.076 122.664 8.192 123.024 8.424C123.392 8.648 123.576 9.016 123.576 9.528C123.576 9.816 123.5 10.088 123.348 10.344C123.204 10.6 122.996 10.82 122.724 11.004C122.452 11.188 122.12 11.332 121.728 11.436C121.344 11.548 120.912 11.604 120.432 11.604ZM120.504 6.264C120.784 6.264 121.024 6.164 121.224 5.964C121.424 5.756 121.524 5.46 121.524 5.076C121.524 4.708 121.424 4.424 121.224 4.224C121.032 4.016 120.792 3.912 120.504 3.912C120.216 3.912 119.972 4.012 119.772 4.212C119.572 4.412 119.472 4.7 119.472 5.076C119.472 5.46 119.572 5.756 119.772 5.964C119.972 6.164 120.216 6.264 120.504 6.264ZM120.648 10.704C121.128 10.704 121.512 10.608 121.8 10.416C122.096 10.232 122.244 10.012 122.244 9.756C122.244 9.524 122.152 9.368 121.968 9.288C121.792 9.208 121.536 9.168 121.2 9.168H120.396C120.076 9.168 119.808 9.14 119.592 9.084C119.288 9.316 119.136 9.576 119.136 9.864C119.136 10.128 119.268 10.332 119.532 10.476C119.804 10.628 120.176 10.704 120.648 10.704ZM127.447 9.144C127.039 9.144 126.659 9.076 126.307 8.94C125.955 8.796 125.647 8.592 125.383 8.328C125.119 8.064 124.911 7.744 124.759 7.368C124.615 6.984 124.543 6.548 124.543 6.06C124.543 5.58 124.619 5.148 124.771 4.764C124.923 4.38 125.123 4.056 125.371 3.792C125.627 3.528 125.919 3.324 126.247 3.18C126.575 3.036 126.911 2.964 127.255 2.964C127.655 2.964 128.007 3.032 128.311 3.168C128.615 3.304 128.867 3.496 129.067 3.744C129.275 3.992 129.431 4.288 129.535 4.632C129.639 4.976 129.691 5.352 129.691 5.76C129.691 5.896 129.683 6.024 129.667 6.144C129.659 6.264 129.647 6.36 129.631 6.432H125.887C125.951 6.96 126.135 7.368 126.439 7.656C126.751 7.936 127.147 8.076 127.627 8.076C127.883 8.076 128.119 8.04 128.335 7.968C128.559 7.888 128.779 7.78 128.995 7.644L129.463 8.508C129.183 8.692 128.871 8.844 128.527 8.964C128.183 9.084 127.823 9.144 127.447 9.144ZM125.875 5.496H128.491C128.491 5.04 128.391 4.684 128.191 4.428C127.999 4.164 127.699 4.032 127.291 4.032C126.939 4.032 126.631 4.156 126.367 4.404C126.103 4.652 125.939 5.016 125.875 5.496ZM133.468 9.144C133.124 9.144 132.832 9.092 132.592 8.988C132.36 8.884 132.168 8.74 132.016 8.556C131.872 8.364 131.764 8.14 131.692 7.884C131.628 7.62 131.596 7.328 131.596 7.008V4.2H130.756V3.168L131.668 3.108L131.836 1.5H132.988V3.108H134.488V4.2H132.988V7.008C132.988 7.696 133.264 8.04 133.816 8.04C133.92 8.04 134.024 8.028 134.128 8.004C134.24 7.98 134.34 7.948 134.428 7.908L134.668 8.928C134.508 8.984 134.324 9.032 134.116 9.072C133.916 9.12 133.7 9.144 133.468 9.144Z" fill="#9B9B9B"/>
<path d="M21.8505 9V8.196C22.3785 7.684 22.8545 7.212 23.2785 6.78C23.7105 6.348 24.0745 5.948 24.3705 5.58C24.6745 5.212 24.9065 4.868 25.0665 4.548C25.2265 4.228 25.3065 3.924 25.3065 3.636C25.3065 3.228 25.1985 2.908 24.9825 2.676C24.7665 2.436 24.4545 2.316 24.0465 2.316C23.7505 2.316 23.4785 2.4 23.2305 2.568C22.9905 2.736 22.7665 2.936 22.5585 3.168L21.7905 2.4C22.1425 2.024 22.5025 1.736 22.8705 1.536C23.2465 1.328 23.6985 1.224 24.2265 1.224C24.5945 1.224 24.9265 1.28 25.2225 1.392C25.5185 1.504 25.7705 1.664 25.9785 1.872C26.1865 2.072 26.3465 2.316 26.4585 2.604C26.5785 2.892 26.6385 3.212 26.6385 3.564C26.6385 3.9 26.5625 4.244 26.4105 4.596C26.2665 4.94 26.0665 5.292 25.8105 5.652C25.5625 6.004 25.2705 6.368 24.9345 6.744C24.5985 7.12 24.2425 7.508 23.8665 7.908C24.0665 7.892 24.2825 7.876 24.5145 7.86C24.7465 7.836 24.9545 7.824 25.1385 7.824H27.0105V9H21.8505ZM31.1189 9.144C30.3189 9.144 29.6869 8.804 29.2229 8.124C28.7589 7.436 28.5269 6.444 28.5269 5.148C28.5269 3.852 28.7589 2.876 29.2229 2.22C29.6869 1.556 30.3189 1.224 31.1189 1.224C31.9189 1.224 32.5509 1.556 33.0149 2.22C33.4789 2.884 33.7109 3.86 33.7109 5.148C33.7109 6.444 33.4789 7.436 33.0149 8.124C32.5509 8.804 31.9189 9.144 31.1189 9.144ZM31.1189 8.064C31.3029 8.064 31.4709 8.016 31.6229 7.92C31.7829 7.816 31.9189 7.648 32.0309 7.416C32.1429 7.184 32.2309 6.884 32.2949 6.516C32.3589 6.148 32.3909 5.692 32.3909 5.148C32.3909 4.612 32.3589 4.164 32.2949 3.804C32.2309 3.436 32.1429 3.14 32.0309 2.916C31.9189 2.692 31.7829 2.536 31.6229 2.448C31.4709 2.352 31.3029 2.304 31.1189 2.304C30.9349 2.304 30.7629 2.352 30.6029 2.448C30.4509 2.536 30.3189 2.692 30.2069 2.916C30.0949 3.14 30.0069 3.436 29.9429 3.804C29.8789 4.164 29.8469 4.612 29.8469 5.148C29.8469 5.692 29.8789 6.148 29.9429 6.516C30.0069 6.884 30.0949 7.184 30.2069 7.416C30.3189 7.648 30.4509 7.816 30.6029 7.92C30.7629 8.016 30.9349 8.064 31.1189 8.064ZM37.7712 9.144C36.9712 9.144 36.3392 8.804 35.8752 8.124C35.4112 7.436 35.1792 6.444 35.1792 5.148C35.1792 3.852 35.4112 2.876 35.8752 2.22C36.3392 1.556 36.9712 1.224 37.7712 1.224C38.5712 1.224 39.2032 1.556 39.6672 2.22C40.1312 2.884 40.3632 3.86 40.3632 5.148C40.3632 6.444 40.1312 7.436 39.6672 8.124C39.2032 8.804 38.5712 9.144 37.7712 9.144ZM37.7712 8.064C37.9552 8.064 38.1232 8.016 38.2752 7.92C38.4352 7.816 38.5712 7.648 38.6832 7.416C38.7952 7.184 38.8832 6.884 38.9472 6.516C39.0112 6.148 39.0432 5.692 39.0432 5.148C39.0432 4.612 39.0112 4.164 38.9472 3.804C38.8832 3.436 38.7952 3.14 38.6832 2.916C38.5712 2.692 38.4352 2.536 38.2752 2.448C38.1232 2.352 37.9552 2.304 37.7712 2.304C37.5872 2.304 37.4152 2.352 37.2552 2.448C37.1032 2.536 36.9712 2.692 36.8592 2.916C36.7472 3.14 36.6592 3.436 36.5952 3.804C36.5312 4.164 36.4992 4.612 36.4992 5.148C36.4992 5.692 36.5312 6.148 36.5952 6.516C36.6592 6.884 36.7472 7.184 36.8592 7.416C36.9712 7.648 37.1032 7.816 37.2552 7.92C37.4152 8.016 37.5872 8.064 37.7712 8.064ZM48.1899 9.144C47.7339 9.144 47.3219 9.08 46.9539 8.952C46.5939 8.816 46.2819 8.604 46.0179 8.316C45.7619 8.028 45.5619 7.66 45.4179 7.212C45.2819 6.756 45.2139 6.204 45.2139 5.556V1.152H46.6059V5.664C46.6059 6.088 46.6419 6.448 46.7139 6.744C46.7939 7.032 46.9019 7.264 47.0379 7.44C47.1819 7.616 47.3499 7.744 47.5419 7.824C47.7339 7.896 47.9499 7.932 48.1899 7.932C48.4299 7.932 48.6499 7.896 48.8499 7.824C49.0499 7.744 49.2219 7.616 49.3659 7.44C49.5099 7.264 49.6219 7.032 49.7019 6.744C49.7819 6.448 49.8219 6.088 49.8219 5.664V1.152H51.1539V5.556C51.1539 6.204 51.0859 6.756 50.9499 7.212C50.8139 7.66 50.6139 8.028 50.3499 8.316C50.0939 8.604 49.7819 8.816 49.4139 8.952C49.0539 9.08 48.6459 9.144 48.1899 9.144ZM55.788 9.144C55.26 9.144 54.748 9.044 54.252 8.844C53.764 8.644 53.332 8.36 52.956 7.992L53.772 7.044C54.052 7.308 54.372 7.524 54.732 7.692C55.092 7.852 55.452 7.932 55.812 7.932C56.26 7.932 56.6 7.84 56.832 7.656C57.064 7.472 57.18 7.228 57.18 6.924C57.18 6.764 57.148 6.628 57.084 6.516C57.028 6.404 56.944 6.308 56.832 6.228C56.728 6.14 56.6 6.06 56.448 5.988C56.304 5.916 56.144 5.844 55.968 5.772L54.888 5.304C54.696 5.224 54.504 5.124 54.312 5.004C54.128 4.884 53.96 4.74 53.808 4.572C53.656 4.404 53.532 4.208 53.436 3.984C53.348 3.76 53.304 3.504 53.304 3.216C53.304 2.904 53.368 2.616 53.496 2.352C53.632 2.08 53.816 1.844 54.048 1.644C54.28 1.444 54.556 1.288 54.876 1.176C55.204 1.064 55.56 1.008 55.944 1.008C56.4 1.008 56.84 1.1 57.264 1.284C57.688 1.46 58.052 1.7 58.356 2.004L57.648 2.892C57.392 2.684 57.128 2.52 56.856 2.4C56.584 2.28 56.28 2.22 55.944 2.22C55.568 2.22 55.268 2.304 55.044 2.472C54.82 2.632 54.708 2.856 54.708 3.144C54.708 3.296 54.74 3.428 54.804 3.54C54.876 3.644 54.968 3.74 55.08 3.828C55.2 3.908 55.336 3.984 55.488 4.056C55.64 4.12 55.796 4.184 55.956 4.248L57.024 4.692C57.256 4.788 57.468 4.9 57.66 5.028C57.852 5.156 58.016 5.304 58.152 5.472C58.296 5.64 58.408 5.836 58.488 6.06C58.568 6.276 58.608 6.528 58.608 6.816C58.608 7.136 58.544 7.436 58.416 7.716C58.288 7.996 58.1 8.244 57.852 8.46C57.612 8.668 57.316 8.836 56.964 8.964C56.62 9.084 56.228 9.144 55.788 9.144ZM60.5351 9V1.152H62.6351C63.8351 1.152 64.7711 1.476 65.4431 2.124C66.1151 2.772 66.4511 3.744 66.4511 5.04C66.4511 5.688 66.3631 6.26 66.1871 6.756C66.0191 7.252 65.7711 7.668 65.4431 8.004C65.1231 8.332 64.7311 8.58 64.2671 8.748C63.8111 8.916 63.2911 9 62.7071 9H60.5351ZM61.9271 7.872H62.5391C63.3391 7.872 63.9511 7.644 64.3751 7.188C64.8071 6.724 65.0231 6.008 65.0231 5.04C65.0231 4.08 64.8071 3.38 64.3751 2.94C63.9431 2.5 63.3311 2.28 62.5391 2.28H61.9271V7.872ZM141.326 9.144C140.526 9.144 139.894 8.804 139.43 8.124C138.966 7.436 138.734 6.444 138.734 5.148C138.734 3.852 138.966 2.876 139.43 2.22C139.894 1.556 140.526 1.224 141.326 1.224C142.126 1.224 142.758 1.556 143.222 2.22C143.686 2.884 143.918 3.86 143.918 5.148C143.918 6.444 143.686 7.436 143.222 8.124C142.758 8.804 142.126 9.144 141.326 9.144ZM141.326 8.064C141.51 8.064 141.678 8.016 141.83 7.92C141.99 7.816 142.126 7.648 142.238 7.416C142.35 7.184 142.438 6.884 142.502 6.516C142.566 6.148 142.598 5.692 142.598 5.148C142.598 4.612 142.566 4.164 142.502 3.804C142.438 3.436 142.35 3.14 142.238 2.916C142.126 2.692 141.99 2.536 141.83 2.448C141.678 2.352 141.51 2.304 141.326 2.304C141.142 2.304 140.97 2.352 140.81 2.448C140.658 2.536 140.526 2.692 140.414 2.916C140.302 3.14 140.214 3.436 140.15 3.804C140.086 4.164 140.054 4.612 140.054 5.148C140.054 5.692 140.086 6.148 140.15 6.516C140.214 6.884 140.302 7.184 140.414 7.416C140.526 7.648 140.658 7.816 140.81 7.92C140.97 8.016 141.142 8.064 141.326 8.064ZM146.562 9.144C146.306 9.144 146.09 9.056 145.914 8.88C145.746 8.704 145.662 8.48 145.662 8.208C145.662 7.936 145.746 7.712 145.914 7.536C146.09 7.36 146.306 7.272 146.562 7.272C146.818 7.272 147.03 7.36 147.198 7.536C147.366 7.712 147.45 7.936 147.45 8.208C147.45 8.48 147.366 8.704 147.198 8.88C147.03 9.056 146.818 9.144 146.562 9.144ZM150.727 9C150.759 8.32 150.819 7.7 150.907 7.14C150.995 6.572 151.119 6.032 151.279 5.52C151.447 5.008 151.659 4.512 151.915 4.032C152.171 3.544 152.483 3.044 152.851 2.532H149.239V1.368H154.363V2.208C153.915 2.76 153.551 3.288 153.271 3.792C152.999 4.288 152.783 4.8 152.623 5.328C152.463 5.848 152.347 6.404 152.275 6.996C152.211 7.588 152.163 8.256 152.131 9H150.727ZM158.255 9.144C157.639 9.144 157.119 9.04 156.695 8.832C156.279 8.616 155.931 8.368 155.651 8.088L156.287 7.2C156.519 7.416 156.779 7.608 157.067 7.776C157.355 7.936 157.691 8.016 158.075 8.016C158.507 8.016 158.859 7.888 159.131 7.632C159.411 7.376 159.551 7.016 159.551 6.552C159.551 6.096 159.423 5.744 159.167 5.496C158.911 5.248 158.571 5.124 158.147 5.124C157.899 5.124 157.691 5.16 157.523 5.232C157.355 5.296 157.155 5.404 156.923 5.556L156.263 5.136L156.491 1.368H160.571V2.532H157.691L157.535 4.38C157.695 4.3 157.851 4.24 158.003 4.2C158.163 4.152 158.343 4.128 158.543 4.128C158.871 4.128 159.179 4.176 159.467 4.272C159.763 4.368 160.019 4.516 160.235 4.716C160.451 4.908 160.623 5.156 160.751 5.46C160.879 5.756 160.943 6.108 160.943 6.516C160.943 6.932 160.867 7.304 160.715 7.632C160.571 7.96 160.375 8.236 160.127 8.46C159.879 8.684 159.591 8.856 159.263 8.976C158.943 9.088 158.607 9.144 158.255 9.144ZM165.604 9V7.032H162.232V6.096L165.256 1.368H166.9V5.964H167.86V7.032H166.9V9H165.604ZM163.6 5.964H165.604V4.236C165.604 4.012 165.608 3.748 165.616 3.444C165.632 3.14 165.648 2.876 165.664 2.652H165.616C165.52 2.852 165.42 3.048 165.316 3.24C165.212 3.432 165.104 3.632 164.992 3.84L163.6 5.964ZM171.56 9.144C170.944 9.144 170.424 9.04 170 8.832C169.584 8.616 169.236 8.368 168.956 8.088L169.592 7.2C169.824 7.416 170.084 7.608 170.372 7.776C170.66 7.936 170.996 8.016 171.38 8.016C171.812 8.016 172.164 7.888 172.436 7.632C172.716 7.376 172.856 7.016 172.856 6.552C172.856 6.096 172.728 5.744 172.472 5.496C172.216 5.248 171.876 5.124 171.452 5.124C171.204 5.124 170.996 5.16 170.828 5.232C170.66 5.296 170.46 5.404 170.228 5.556L169.568 5.136L169.796 1.368H173.876V2.532H170.996L170.84 4.38C171 4.3 171.156 4.24 171.308 4.2C171.468 4.152 171.648 4.128 171.848 4.128C172.176 4.128 172.484 4.176 172.772 4.272C173.068 4.368 173.324 4.516 173.54 4.716C173.756 4.908 173.928 5.156 174.056 5.46C174.184 5.756 174.248 6.108 174.248 6.516C174.248 6.932 174.172 7.304 174.02 7.632C173.876 7.96 173.68 8.236 173.432 8.46C173.184 8.684 172.896 8.856 172.568 8.976C172.248 9.088 171.912 9.144 171.56 9.144ZM178.908 9V7.032H175.536V6.096L178.56 1.368H180.204V5.964H181.164V7.032H180.204V9H178.908ZM176.904 5.964H178.908V4.236C178.908 4.012 178.912 3.748 178.92 3.444C178.936 3.14 178.952 2.876 178.968 2.652H178.92C178.824 2.852 178.724 3.048 178.62 3.24C178.516 3.432 178.408 3.632 178.296 3.84L176.904 5.964ZM185.871 9V1.152H188.379C188.787 1.152 189.159 1.188 189.495 1.26C189.839 1.324 190.135 1.432 190.383 1.584C190.639 1.728 190.835 1.924 190.971 2.172C191.115 2.42 191.187 2.724 191.187 3.084C191.187 3.46 191.091 3.808 190.899 4.128C190.707 4.448 190.439 4.668 190.095 4.788V4.836C190.527 4.932 190.883 5.136 191.163 5.448C191.451 5.752 191.595 6.168 191.595 6.696C191.595 7.088 191.519 7.428 191.367 7.716C191.215 8.004 191.003 8.244 190.731 8.436C190.467 8.628 190.151 8.772 189.783 8.868C189.415 8.956 189.015 9 188.583 9H185.871ZM187.263 4.392H188.259C188.811 4.392 189.207 4.292 189.447 4.092C189.695 3.892 189.819 3.624 189.819 3.288C189.819 2.904 189.691 2.632 189.435 2.472C189.179 2.312 188.795 2.232 188.283 2.232H187.263V4.392ZM187.263 7.92H188.439C189.015 7.92 189.459 7.816 189.771 7.608C190.083 7.392 190.239 7.064 190.239 6.624C190.239 6.208 190.087 5.908 189.783 5.724C189.479 5.532 189.031 5.436 188.439 5.436H187.263V7.92ZM193.411 9V3.108H194.791V9H193.411ZM194.107 2.076C193.859 2.076 193.655 2.004 193.495 1.86C193.335 1.716 193.255 1.528 193.255 1.296C193.255 1.064 193.335 0.876 193.495 0.732C193.655 0.58 193.859 0.504 194.107 0.504C194.355 0.504 194.559 0.58 194.719 0.732C194.879 0.876 194.959 1.064 194.959 1.296C194.959 1.528 194.879 1.716 194.719 1.86C194.559 2.004 194.355 2.076 194.107 2.076ZM199.128 9.144C198.784 9.144 198.492 9.092 198.252 8.988C198.02 8.884 197.828 8.74 197.676 8.556C197.532 8.364 197.424 8.14 197.352 7.884C197.288 7.62 197.256 7.328 197.256 7.008V4.2H196.416V3.168L197.328 3.108L197.496 1.5H198.648V3.108H200.148V4.2H198.648V7.008C198.648 7.696 198.924 8.04 199.476 8.04C199.58 8.04 199.684 8.028 199.788 8.004C199.9 7.98 200 7.948 200.088 7.908L200.328 8.928C200.168 8.984 199.984 9.032 199.776 9.072C199.576 9.12 199.36 9.144 199.128 9.144ZM204.16 9.144C203.76 9.144 203.384 9.076 203.032 8.94C202.688 8.804 202.388 8.604 202.132 8.34C201.876 8.076 201.676 7.752 201.532 7.368C201.388 6.984 201.316 6.548 201.316 6.06C201.316 5.572 201.396 5.136 201.556 4.752C201.716 4.368 201.932 4.044 202.204 3.78C202.476 3.516 202.788 3.316 203.14 3.18C203.5 3.036 203.876 2.964 204.268 2.964C204.652 2.964 204.98 3.028 205.252 3.156C205.532 3.284 205.78 3.44 205.996 3.624L205.324 4.524C205.164 4.388 205.004 4.284 204.844 4.212C204.692 4.132 204.524 4.092 204.34 4.092C203.86 4.092 203.472 4.272 203.176 4.632C202.88 4.984 202.732 5.46 202.732 6.06C202.732 6.652 202.876 7.128 203.164 7.488C203.46 7.84 203.84 8.016 204.304 8.016C204.536 8.016 204.752 7.968 204.952 7.872C205.16 7.768 205.348 7.648 205.516 7.512L206.08 8.424C205.8 8.664 205.492 8.844 205.156 8.964C204.828 9.084 204.496 9.144 204.16 9.144ZM209.862 9.144C209.494 9.144 209.142 9.076 208.806 8.94C208.47 8.804 208.17 8.604 207.906 8.34C207.65 8.076 207.446 7.752 207.294 7.368C207.142 6.984 207.066 6.548 207.066 6.06C207.066 5.572 207.142 5.136 207.294 4.752C207.446 4.368 207.65 4.044 207.906 3.78C208.17 3.516 208.47 3.316 208.806 3.18C209.142 3.036 209.494 2.964 209.862 2.964C210.23 2.964 210.582 3.036 210.918 3.18C211.262 3.316 211.562 3.516 211.818 3.78C212.074 4.044 212.278 4.368 212.43 4.752C212.59 5.136 212.67 5.572 212.67 6.06C212.67 6.548 212.59 6.984 212.43 7.368C212.278 7.752 212.074 8.076 211.818 8.34C211.562 8.604 211.262 8.804 210.918 8.94C210.582 9.076 210.23 9.144 209.862 9.144ZM209.862 8.016C210.294 8.016 210.634 7.84 210.882 7.488C211.13 7.128 211.254 6.652 211.254 6.06C211.254 5.46 211.13 4.984 210.882 4.632C210.634 4.272 210.294 4.092 209.862 4.092C209.43 4.092 209.09 4.272 208.842 4.632C208.602 4.984 208.482 5.46 208.482 6.06C208.482 6.652 208.602 7.128 208.842 7.488C209.09 7.84 209.43 8.016 209.862 8.016ZM214.536 9V3.108H215.916V9H214.536ZM215.232 2.076C214.984 2.076 214.78 2.004 214.62 1.86C214.46 1.716 214.38 1.528 214.38 1.296C214.38 1.064 214.46 0.876 214.62 0.732C214.78 0.58 214.984 0.504 215.232 0.504C215.48 0.504 215.684 0.58 215.844 0.732C216.004 0.876 216.084 1.064 216.084 1.296C216.084 1.528 216.004 1.716 215.844 1.86C215.684 2.004 215.48 2.076 215.232 2.076ZM218.177 9V3.108H219.317L219.413 3.9H219.461C219.725 3.644 220.009 3.424 220.313 3.24C220.625 3.056 220.985 2.964 221.393 2.964C222.025 2.964 222.485 3.168 222.773 3.576C223.061 3.976 223.205 4.552 223.205 5.304V9H221.825V5.484C221.825 4.996 221.753 4.652 221.609 4.452C221.465 4.252 221.229 4.152 220.901 4.152C220.645 4.152 220.417 4.216 220.217 4.344C220.025 4.464 219.805 4.644 219.557 4.884V9H218.177Z" fill="#010101"/>
</svg>
