<?xml version="1.0" encoding="iso-8859-1"?>
<!-- Generator: Adobe Illustrator 18.1.1, SVG Export Plug-In . SVG Version: 6.00 Build 0)  -->
<svg version="1.1" id="Capa_1" xmlns="http://www.w3.org/2000/svg" xmlns:xlink="http://www.w3.org/1999/xlink" x="0px" y="0px"
	 viewBox="0 0 21.165 21.165" style="enable-background:new 0 0 21.165 21.165;" xml:space="preserve">
<g>
	<path d="M0.48,21.165L1.957,0H15.18c0,0,5.718,0.773,5.496,6.163c0,0,0.375,3.302-3.955,5.78c-0.703,0.401-1.435,0.585-2.404,0.926
		l-2.77,0.21L8.369,13.1L7.697,9.38l3.411,0.03l0.853,0.009c0,0,0.447-0.089,1.029-0.312c1.06-0.406,2.551-1.264,2.566-2.867
		c0,0-0.076-2.791-3.216-2.791c-3.141,0-5.887-0.079-5.887-0.079L5.206,21.165H0.48z"/>
	<g>
	</g>
	<g>
	</g>
	<g>
	</g>
	<g>
	</g>
	<g>
	</g>
	<g>
	</g>
	<g>
	</g>
	<g>
	</g>
	<g>
	</g>
	<g>
	</g>
	<g>
	</g>
	<g>
	</g>
	<g>
	</g>
	<g>
	</g>
	<g>
	</g>
</g>
<g>
</g>
<g>
</g>
<g>
</g>
<g>
</g>
<g>
</g>
<g>
</g>
<g>
</g>
<g>
</g>
<g>
</g>
<g>
</g>
<g>
</g>
<g>
</g>
<g>
</g>
<g>
</g>
<g>
</g>
</svg>
