<svg height="490pt" viewBox="0 -58 490 490" width="490pt" xmlns="http://www.w3.org/2000/svg"><path d="m459.5 0h-143.5c-13.667969.0742188-27.175781 2.933594-39.699219 8.398438-20.320312 8.667968-43.308593 8.632812-63.601562-.097657-12.515625-5.484375-26.035157-8.3085935-39.699219-8.300781h-142.5c-16.738281.160156-30.285156 13.664062-30.5 30.398438v298.300781c0 16.5 13.898438 30.199219 30.5 30.199219h142.5c10.933594-.054688 21.765625 2.15625 31.800781 6.5 25.363281 10.800781 54.035157 10.800781 79.398438 0 10.035156-4.34375 20.867187-6.554688 31.800781-6.5h143.5c16.5 0 30.5-13.699219 30.5-30.199219v-298.300781c-.214844-16.734376-13.761719-30.238282-30.5-30.398438zm-286.5 339h-142.5c-5.5 0-10.5-4.699219-10.5-10.199219v-298.402343c.21875-5.6875 4.808594-10.234376 10.5-10.398438h142.5c10.859375.046875 21.589844 2.363281 31.5 6.800781 9.371094 4.125 19.320312 6.789063 29.5 7.898438v318.199219c-7.398438-.945313-14.632812-2.894532-21.5-5.796876-12.476562-5.363281-25.917969-8.121093-39.5-8.101562zm297-10.199219c0 5.5-5 10.199219-10.5 10.199219h-143.5c-13.742188-.027344-27.351562 2.726562-40 8.101562-7 3.027344-14.417969 4.980469-22 5.796876v-318.199219c10.363281-.980469 20.496094-3.648438 30-7.898438 10.085938-4.441406 20.980469-6.753906 32-6.800781h143.5c5.691406.164062 10.28125 4.710938 10.5 10.398438zm0 0"/><path d="m67 96h45.199219c5.523437 0 10-4.476562 10-10s-4.476563-10-10-10h-45.199219c-5.523438 0-10 4.476562-10 10s4.476562 10 10 10zm0 0"/><path d="m182.199219 138h-115.199219c-5.523438 0-10 4.476562-10 10s4.476562 10 10 10h115.199219c5.523437 0 10-4.476562 10-10s-4.476563-10-10-10zm0 0"/><path d="m182.199219 201h-115.199219c-5.523438 0-10 4.476562-10 10s4.476562 10 10 10h115.199219c5.523437 0 10-4.476562 10-10s-4.476563-10-10-10zm0 0"/><path d="m182.199219 264h-115.199219c-5.523438 0-10 4.476562-10 10s4.476562 10 10 10h115.199219c5.523437 0 10-4.476562 10-10s-4.476563-10-10-10zm0 0"/><path d="m413.898438 122.101562c-1.570313-3.691406-5.1875-6.089843-9.199219-6.101562h-84.398438c-5.609375.003906-10.1875 4.492188-10.300781 10.101562v121.898438c0 5.523438 4.476562 10 10 10s10-4.476562 10-10v-48h74.699219c3.992187.078125 7.632812-2.265625 9.214843-5.929688 1.578126-3.664062.78125-7.921874-2.015624-10.769531l-24.199219-25.199219 24.199219-25.203124c2.722656-2.898438 3.503906-7.117188 2-10.796876zm-47.296876 42.898438 14.597657 15h-51.199219v-44h51.199219l-14.597657 15.199219c-3.703124 3.855469-3.703124 9.945312 0 13.800781zm0 0"/></svg>