<svg width="375" height="17" viewBox="0 0 375 17" fill="none" xmlns="http://www.w3.org/2000/svg">
<path d="M2.304 14.108C1.704 14.108 1.23 13.853 0.882 13.343C0.534 12.827 0.36 12.083 0.36 11.111C0.36 10.139 0.534 9.407 0.882 8.915C1.23 8.417 1.704 8.168 2.304 8.168C2.904 8.168 3.378 8.417 3.726 8.915C4.074 9.413 4.248 10.145 4.248 11.111C4.248 12.083 4.074 12.827 3.726 13.343C3.378 13.853 2.904 14.108 2.304 14.108ZM2.304 13.298C2.442 13.298 2.568 13.262 2.682 13.19C2.802 13.112 2.904 12.986 2.988 12.812C3.072 12.638 3.138 12.413 3.186 12.137C3.234 11.861 3.258 11.519 3.258 11.111C3.258 10.709 3.234 10.373 3.186 10.103C3.138 9.827 3.072 9.605 2.988 9.437C2.904 9.269 2.802 9.152 2.682 9.086C2.568 9.014 2.442 8.978 2.304 8.978C2.166 8.978 2.037 9.014 1.917 9.086C1.803 9.152 1.704 9.269 1.62 9.437C1.536 9.605 1.47 9.827 1.422 10.103C1.374 10.373 1.35 10.709 1.35 11.111C1.35 11.519 1.374 11.861 1.422 12.137C1.47 12.413 1.536 12.638 1.62 12.812C1.704 12.986 1.803 13.112 1.917 13.19C2.037 13.262 2.166 13.298 2.304 13.298ZM6.07861 14.108C5.88661 14.108 5.72461 14.042 5.59261 13.91C5.46661 13.778 5.40361 13.61 5.40361 13.406C5.40361 13.202 5.46661 13.034 5.59261 12.902C5.72461 12.77 5.88661 12.704 6.07861 12.704C6.27061 12.704 6.42961 12.77 6.55561 12.902C6.68161 13.034 6.74461 13.202 6.74461 13.406C6.74461 13.61 6.68161 13.778 6.55561 13.91C6.42961 14.042 6.27061 14.108 6.07861 14.108ZM9.84148 14.108C9.24148 14.108 8.76748 13.853 8.41948 13.343C8.07148 12.827 7.89748 12.083 7.89748 11.111C7.89748 10.139 8.07148 9.407 8.41948 8.915C8.76748 8.417 9.24148 8.168 9.84148 8.168C10.4415 8.168 10.9155 8.417 11.2635 8.915C11.6115 9.413 11.7855 10.145 11.7855 11.111C11.7855 12.083 11.6115 12.827 11.2635 13.343C10.9155 13.853 10.4415 14.108 9.84148 14.108ZM9.84148 13.298C9.97948 13.298 10.1055 13.262 10.2195 13.19C10.3395 13.112 10.4415 12.986 10.5255 12.812C10.6095 12.638 10.6755 12.413 10.7235 12.137C10.7715 11.861 10.7955 11.519 10.7955 11.111C10.7955 10.709 10.7715 10.373 10.7235 10.103C10.6755 9.827 10.6095 9.605 10.5255 9.437C10.4415 9.269 10.3395 9.152 10.2195 9.086C10.1055 9.014 9.97948 8.978 9.84148 8.978C9.70348 8.978 9.57448 9.014 9.45448 9.086C9.34048 9.152 9.24148 9.269 9.15748 9.437C9.07348 9.605 9.00748 9.827 8.95948 10.103C8.91148 10.373 8.88748 10.709 8.88748 11.111C8.88748 11.519 8.91148 11.861 8.95948 12.137C9.00748 12.413 9.07348 12.638 9.15748 12.812C9.24148 12.986 9.34048 13.112 9.45448 13.19C9.57448 13.262 9.70348 13.298 9.84148 13.298ZM13.0401 14V13.154H14.3181V9.392H13.2651V8.744C13.5531 8.69 13.7991 8.627 14.0031 8.555C14.2131 8.477 14.4081 8.384 14.5881 8.276H15.3621V13.154H16.4871V14H13.0401Z" fill="#9A9A9A"/>
<path d="M8.5 0.5V5.5" stroke="#9A9A9A" stroke-linecap="square"/>
<path d="M34.7581 14.108C34.1581 14.108 33.6841 13.853 33.3361 13.343C32.9881 12.827 32.8141 12.083 32.8141 11.111C32.8141 10.139 32.9881 9.407 33.3361 8.915C33.6841 8.417 34.1581 8.168 34.7581 8.168C35.3581 8.168 35.8321 8.417 36.1801 8.915C36.5281 9.413 36.7021 10.145 36.7021 11.111C36.7021 12.083 36.5281 12.827 36.1801 13.343C35.8321 13.853 35.3581 14.108 34.7581 14.108ZM34.7581 13.298C34.8961 13.298 35.0221 13.262 35.1361 13.19C35.2561 13.112 35.3581 12.986 35.4421 12.812C35.5261 12.638 35.5921 12.413 35.6401 12.137C35.6881 11.861 35.7121 11.519 35.7121 11.111C35.7121 10.709 35.6881 10.373 35.6401 10.103C35.5921 9.827 35.5261 9.605 35.4421 9.437C35.3581 9.269 35.2561 9.152 35.1361 9.086C35.0221 9.014 34.8961 8.978 34.7581 8.978C34.6201 8.978 34.4911 9.014 34.3711 9.086C34.2571 9.152 34.1581 9.269 34.0741 9.437C33.9901 9.605 33.9241 9.827 33.8761 10.103C33.8281 10.373 33.8041 10.709 33.8041 11.111C33.8041 11.519 33.8281 11.861 33.8761 12.137C33.9241 12.413 33.9901 12.638 34.0741 12.812C34.1581 12.986 34.2571 13.112 34.3711 13.19C34.4911 13.262 34.6201 13.298 34.7581 13.298ZM38.5327 14.108C38.3407 14.108 38.1787 14.042 38.0467 13.91C37.9207 13.778 37.8577 13.61 37.8577 13.406C37.8577 13.202 37.9207 13.034 38.0467 12.902C38.1787 12.77 38.3407 12.704 38.5327 12.704C38.7247 12.704 38.8837 12.77 39.0097 12.902C39.1357 13.034 39.1987 13.202 39.1987 13.406C39.1987 13.61 39.1357 13.778 39.0097 13.91C38.8837 14.042 38.7247 14.108 38.5327 14.108ZM40.6576 14V13.154H41.9356V9.392H40.8826V8.744C41.1706 8.69 41.4166 8.627 41.6206 8.555C41.8306 8.477 42.0256 8.384 42.2056 8.276H42.9796V13.154H44.1046V14H40.6576ZM46.9972 14.108C46.5352 14.108 46.1452 14.03 45.8272 13.874C45.5152 13.712 45.2542 13.526 45.0442 13.316L45.5212 12.65C45.6952 12.812 45.8902 12.956 46.1062 13.082C46.3222 13.202 46.5742 13.262 46.8622 13.262C47.1862 13.262 47.4502 13.166 47.6542 12.974C47.8642 12.782 47.9692 12.512 47.9692 12.164C47.9692 11.822 47.8732 11.558 47.6812 11.372C47.4892 11.186 47.2342 11.093 46.9162 11.093C46.7302 11.093 46.5742 11.12 46.4482 11.174C46.3222 11.222 46.1722 11.303 45.9982 11.417L45.5032 11.102L45.6742 8.276H48.7342V9.149H46.5742L46.4572 10.535C46.5772 10.475 46.6942 10.43 46.8082 10.4C46.9282 10.364 47.0632 10.346 47.2132 10.346C47.4592 10.346 47.6902 10.382 47.9062 10.454C48.1282 10.526 48.3202 10.637 48.4822 10.787C48.6442 10.931 48.7732 11.117 48.8692 11.345C48.9652 11.567 49.0132 11.831 49.0132 12.137C49.0132 12.449 48.9562 12.728 48.8422 12.974C48.7342 13.22 48.5872 13.427 48.4012 13.595C48.2152 13.763 47.9992 13.892 47.7532 13.982C47.5132 14.066 47.2612 14.108 46.9972 14.108Z" fill="#9A9A9A"/>
<path d="M40.9541 0.5V5.5" stroke="#9A9A9A" stroke-linecap="square"/>
<path d="M67.2132 14.108C66.6132 14.108 66.1392 13.853 65.7912 13.343C65.4432 12.827 65.2692 12.083 65.2692 11.111C65.2692 10.139 65.4432 9.407 65.7912 8.915C66.1392 8.417 66.6132 8.168 67.2132 8.168C67.8132 8.168 68.2872 8.417 68.6352 8.915C68.9832 9.413 69.1572 10.145 69.1572 11.111C69.1572 12.083 68.9832 12.827 68.6352 13.343C68.2872 13.853 67.8132 14.108 67.2132 14.108ZM67.2132 13.298C67.3512 13.298 67.4772 13.262 67.5912 13.19C67.7112 13.112 67.8132 12.986 67.8972 12.812C67.9812 12.638 68.0472 12.413 68.0952 12.137C68.1432 11.861 68.1672 11.519 68.1672 11.111C68.1672 10.709 68.1432 10.373 68.0952 10.103C68.0472 9.827 67.9812 9.605 67.8972 9.437C67.8132 9.269 67.7112 9.152 67.5912 9.086C67.4772 9.014 67.3512 8.978 67.2132 8.978C67.0752 8.978 66.9462 9.014 66.8262 9.086C66.7122 9.152 66.6132 9.269 66.5292 9.437C66.4452 9.605 66.3792 9.827 66.3312 10.103C66.2832 10.373 66.2592 10.709 66.2592 11.111C66.2592 11.519 66.2832 11.861 66.3312 12.137C66.3792 12.413 66.4452 12.638 66.5292 12.812C66.6132 12.986 66.7122 13.112 66.8262 13.19C66.9462 13.262 67.0752 13.298 67.2132 13.298ZM70.9878 14.108C70.7958 14.108 70.6338 14.042 70.5018 13.91C70.3758 13.778 70.3128 13.61 70.3128 13.406C70.3128 13.202 70.3758 13.034 70.5018 12.902C70.6338 12.77 70.7958 12.704 70.9878 12.704C71.1798 12.704 71.3388 12.77 71.4648 12.902C71.5908 13.034 71.6538 13.202 71.6538 13.406C71.6538 13.61 71.5908 13.778 71.4648 13.91C71.3388 14.042 71.1798 14.108 70.9878 14.108ZM72.7887 14V13.397C73.1847 13.013 73.5417 12.659 73.8597 12.335C74.1837 12.011 74.4567 11.711 74.6787 11.435C74.9067 11.159 75.0807 10.901 75.2007 10.661C75.3207 10.421 75.3807 10.193 75.3807 9.977C75.3807 9.671 75.2997 9.431 75.1377 9.257C74.9757 9.077 74.7417 8.987 74.4357 8.987C74.2137 8.987 74.0097 9.05 73.8237 9.176C73.6437 9.302 73.4757 9.452 73.3197 9.626L72.7437 9.05C73.0077 8.768 73.2777 8.552 73.5537 8.402C73.8357 8.246 74.1747 8.168 74.5707 8.168C74.8467 8.168 75.0957 8.21 75.3177 8.294C75.5397 8.378 75.7287 8.498 75.8847 8.654C76.0407 8.804 76.1607 8.987 76.2447 9.203C76.3347 9.419 76.3797 9.659 76.3797 9.923C76.3797 10.175 76.3227 10.433 76.2087 10.697C76.1007 10.955 75.9507 11.219 75.7587 11.489C75.5727 11.753 75.3537 12.026 75.1017 12.308C74.8497 12.59 74.5827 12.881 74.3007 13.181C74.4507 13.169 74.6127 13.157 74.7867 13.145C74.9607 13.127 75.1167 13.118 75.2547 13.118H76.6587V14H72.7887ZM79.4523 14.108C78.9903 14.108 78.6003 14.03 78.2823 13.874C77.9703 13.712 77.7093 13.526 77.4993 13.316L77.9763 12.65C78.1503 12.812 78.3453 12.956 78.5613 13.082C78.7773 13.202 79.0293 13.262 79.3173 13.262C79.6413 13.262 79.9053 13.166 80.1093 12.974C80.3193 12.782 80.4243 12.512 80.4243 12.164C80.4243 11.822 80.3283 11.558 80.1363 11.372C79.9443 11.186 79.6893 11.093 79.3713 11.093C79.1853 11.093 79.0293 11.12 78.9033 11.174C78.7773 11.222 78.6273 11.303 78.4533 11.417L77.9583 11.102L78.1293 8.276H81.1893V9.149H79.0293L78.9123 10.535C79.0323 10.475 79.1493 10.43 79.2633 10.4C79.3833 10.364 79.5183 10.346 79.6683 10.346C79.9143 10.346 80.1453 10.382 80.3613 10.454C80.5833 10.526 80.7753 10.637 80.9373 10.787C81.0993 10.931 81.2283 11.117 81.3243 11.345C81.4203 11.567 81.4683 11.831 81.4683 12.137C81.4683 12.449 81.4113 12.728 81.2973 12.974C81.1893 13.22 81.0423 13.427 80.8563 13.595C80.6703 13.763 80.4543 13.892 80.2083 13.982C79.9683 14.066 79.7163 14.108 79.4523 14.108Z" fill="#9A9A9A"/>
<path d="M73.4092 0.5V5.5" stroke="#9A9A9A" stroke-linecap="square"/>
<path d="M99.6673 14.108C99.0673 14.108 98.5933 13.853 98.2453 13.343C97.8973 12.827 97.7233 12.083 97.7233 11.111C97.7233 10.139 97.8973 9.407 98.2453 8.915C98.5933 8.417 99.0673 8.168 99.6673 8.168C100.267 8.168 100.741 8.417 101.089 8.915C101.437 9.413 101.611 10.145 101.611 11.111C101.611 12.083 101.437 12.827 101.089 13.343C100.741 13.853 100.267 14.108 99.6673 14.108ZM99.6673 13.298C99.8053 13.298 99.9313 13.262 100.045 13.19C100.165 13.112 100.267 12.986 100.351 12.812C100.435 12.638 100.501 12.413 100.549 12.137C100.597 11.861 100.621 11.519 100.621 11.111C100.621 10.709 100.597 10.373 100.549 10.103C100.501 9.827 100.435 9.605 100.351 9.437C100.267 9.269 100.165 9.152 100.045 9.086C99.9313 9.014 99.8053 8.978 99.6673 8.978C99.5293 8.978 99.4003 9.014 99.2803 9.086C99.1663 9.152 99.0673 9.269 98.9833 9.437C98.8993 9.605 98.8333 9.827 98.7853 10.103C98.7373 10.373 98.7133 10.709 98.7133 11.111C98.7133 11.519 98.7373 11.861 98.7853 12.137C98.8333 12.413 98.8993 12.638 98.9833 12.812C99.0673 12.986 99.1663 13.112 99.2803 13.19C99.4003 13.262 99.5293 13.298 99.6673 13.298ZM103.442 14.108C103.25 14.108 103.088 14.042 102.956 13.91C102.83 13.778 102.767 13.61 102.767 13.406C102.767 13.202 102.83 13.034 102.956 12.902C103.088 12.77 103.25 12.704 103.442 12.704C103.634 12.704 103.793 12.77 103.919 12.902C104.045 13.034 104.108 13.202 104.108 13.406C104.108 13.61 104.045 13.778 103.919 13.91C103.793 14.042 103.634 14.108 103.442 14.108ZM107.061 14.108C106.593 14.108 106.203 14.03 105.891 13.874C105.579 13.718 105.321 13.526 105.117 13.298L105.612 12.632C105.786 12.806 105.984 12.956 106.206 13.082C106.428 13.202 106.683 13.262 106.971 13.262C107.283 13.262 107.535 13.187 107.727 13.037C107.925 12.881 108.024 12.668 108.024 12.398C108.024 12.248 107.997 12.113 107.943 11.993C107.889 11.873 107.796 11.771 107.664 11.687C107.538 11.603 107.367 11.54 107.151 11.498C106.935 11.45 106.665 11.426 106.341 11.426V10.67C106.623 10.67 106.857 10.649 107.043 10.607C107.235 10.559 107.388 10.496 107.502 10.418C107.622 10.334 107.706 10.235 107.754 10.121C107.808 10.007 107.835 9.884 107.835 9.752C107.835 9.512 107.76 9.326 107.61 9.194C107.46 9.056 107.253 8.987 106.989 8.987C106.761 8.987 106.554 9.038 106.368 9.14C106.188 9.236 106.011 9.365 105.837 9.527L105.306 8.888C105.552 8.672 105.813 8.498 106.089 8.366C106.371 8.234 106.683 8.168 107.025 8.168C107.301 8.168 107.553 8.201 107.781 8.267C108.009 8.333 108.204 8.432 108.366 8.564C108.528 8.69 108.654 8.849 108.744 9.041C108.834 9.227 108.879 9.44 108.879 9.68C108.879 10.004 108.789 10.274 108.609 10.49C108.435 10.706 108.192 10.874 107.88 10.994V11.03C108.222 11.12 108.504 11.285 108.726 11.525C108.954 11.765 109.068 12.074 109.068 12.452C109.068 12.716 109.014 12.95 108.906 13.154C108.804 13.358 108.66 13.532 108.474 13.676C108.294 13.814 108.081 13.922 107.835 14C107.595 14.072 107.337 14.108 107.061 14.108ZM111.906 14.108C111.444 14.108 111.054 14.03 110.736 13.874C110.424 13.712 110.163 13.526 109.953 13.316L110.43 12.65C110.604 12.812 110.799 12.956 111.015 13.082C111.231 13.202 111.483 13.262 111.771 13.262C112.095 13.262 112.359 13.166 112.563 12.974C112.773 12.782 112.878 12.512 112.878 12.164C112.878 11.822 112.782 11.558 112.59 11.372C112.398 11.186 112.143 11.093 111.825 11.093C111.639 11.093 111.483 11.12 111.357 11.174C111.231 11.222 111.081 11.303 110.907 11.417L110.412 11.102L110.583 8.276H113.643V9.149H111.483L111.366 10.535C111.486 10.475 111.603 10.43 111.717 10.4C111.837 10.364 111.972 10.346 112.122 10.346C112.368 10.346 112.599 10.382 112.815 10.454C113.037 10.526 113.229 10.637 113.391 10.787C113.553 10.931 113.682 11.117 113.778 11.345C113.874 11.567 113.922 11.831 113.922 12.137C113.922 12.449 113.865 12.728 113.751 12.974C113.643 13.22 113.496 13.427 113.31 13.595C113.124 13.763 112.908 13.892 112.662 13.982C112.422 14.066 112.17 14.108 111.906 14.108Z" fill="#9A9A9A"/>
<path d="M105.863 0.5V5.5" stroke="#9A9A9A" stroke-linecap="square"/>
<path d="M132.122 14.108C131.522 14.108 131.048 13.853 130.7 13.343C130.352 12.827 130.178 12.083 130.178 11.111C130.178 10.139 130.352 9.407 130.7 8.915C131.048 8.417 131.522 8.168 132.122 8.168C132.722 8.168 133.196 8.417 133.544 8.915C133.892 9.413 134.066 10.145 134.066 11.111C134.066 12.083 133.892 12.827 133.544 13.343C133.196 13.853 132.722 14.108 132.122 14.108ZM132.122 13.298C132.26 13.298 132.386 13.262 132.5 13.19C132.62 13.112 132.722 12.986 132.806 12.812C132.89 12.638 132.956 12.413 133.004 12.137C133.052 11.861 133.076 11.519 133.076 11.111C133.076 10.709 133.052 10.373 133.004 10.103C132.956 9.827 132.89 9.605 132.806 9.437C132.722 9.269 132.62 9.152 132.5 9.086C132.386 9.014 132.26 8.978 132.122 8.978C131.984 8.978 131.855 9.014 131.735 9.086C131.621 9.152 131.522 9.269 131.438 9.437C131.354 9.605 131.288 9.827 131.24 10.103C131.192 10.373 131.168 10.709 131.168 11.111C131.168 11.519 131.192 11.861 131.24 12.137C131.288 12.413 131.354 12.638 131.438 12.812C131.522 12.986 131.621 13.112 131.735 13.19C131.855 13.262 131.984 13.298 132.122 13.298ZM135.897 14.108C135.705 14.108 135.543 14.042 135.411 13.91C135.285 13.778 135.222 13.61 135.222 13.406C135.222 13.202 135.285 13.034 135.411 12.902C135.543 12.77 135.705 12.704 135.897 12.704C136.089 12.704 136.248 12.77 136.374 12.902C136.5 13.034 136.563 13.202 136.563 13.406C136.563 13.61 136.5 13.778 136.374 13.91C136.248 14.042 136.089 14.108 135.897 14.108ZM140.047 14V12.524H137.518V11.822L139.786 8.276H141.019V11.723H141.739V12.524H141.019V14H140.047ZM138.544 11.723H140.047V10.427C140.047 10.259 140.05 10.061 140.056 9.833C140.068 9.605 140.08 9.407 140.092 9.239H140.056C139.984 9.389 139.909 9.536 139.831 9.68C139.753 9.824 139.672 9.974 139.588 10.13L138.544 11.723ZM144.361 14.108C143.899 14.108 143.509 14.03 143.191 13.874C142.879 13.712 142.618 13.526 142.408 13.316L142.885 12.65C143.059 12.812 143.254 12.956 143.47 13.082C143.686 13.202 143.938 13.262 144.226 13.262C144.55 13.262 144.814 13.166 145.018 12.974C145.228 12.782 145.333 12.512 145.333 12.164C145.333 11.822 145.237 11.558 145.045 11.372C144.853 11.186 144.598 11.093 144.28 11.093C144.094 11.093 143.938 11.12 143.812 11.174C143.686 11.222 143.536 11.303 143.362 11.417L142.867 11.102L143.038 8.276H146.098V9.149H143.938L143.821 10.535C143.941 10.475 144.058 10.43 144.172 10.4C144.292 10.364 144.427 10.346 144.577 10.346C144.823 10.346 145.054 10.382 145.27 10.454C145.492 10.526 145.684 10.637 145.846 10.787C146.008 10.931 146.137 11.117 146.233 11.345C146.329 11.567 146.377 11.831 146.377 12.137C146.377 12.449 146.32 12.728 146.206 12.974C146.098 13.22 145.951 13.427 145.765 13.595C145.579 13.763 145.363 13.892 145.117 13.982C144.877 14.066 144.625 14.108 144.361 14.108Z" fill="#9A9A9A"/>
<path d="M138.318 0.5V5.5" stroke="#9A9A9A" stroke-linecap="square"/>
<path d="M164.576 14.108C163.976 14.108 163.502 13.853 163.154 13.343C162.806 12.827 162.632 12.083 162.632 11.111C162.632 10.139 162.806 9.407 163.154 8.915C163.502 8.417 163.976 8.168 164.576 8.168C165.176 8.168 165.65 8.417 165.998 8.915C166.346 9.413 166.52 10.145 166.52 11.111C166.52 12.083 166.346 12.827 165.998 13.343C165.65 13.853 165.176 14.108 164.576 14.108ZM164.576 13.298C164.714 13.298 164.84 13.262 164.954 13.19C165.074 13.112 165.176 12.986 165.26 12.812C165.344 12.638 165.41 12.413 165.458 12.137C165.506 11.861 165.53 11.519 165.53 11.111C165.53 10.709 165.506 10.373 165.458 10.103C165.41 9.827 165.344 9.605 165.26 9.437C165.176 9.269 165.074 9.152 164.954 9.086C164.84 9.014 164.714 8.978 164.576 8.978C164.438 8.978 164.309 9.014 164.189 9.086C164.075 9.152 163.976 9.269 163.892 9.437C163.808 9.605 163.742 9.827 163.694 10.103C163.646 10.373 163.622 10.709 163.622 11.111C163.622 11.519 163.646 11.861 163.694 12.137C163.742 12.413 163.808 12.638 163.892 12.812C163.976 12.986 164.075 13.112 164.189 13.19C164.309 13.262 164.438 13.298 164.576 13.298ZM168.351 14.108C168.159 14.108 167.997 14.042 167.865 13.91C167.739 13.778 167.676 13.61 167.676 13.406C167.676 13.202 167.739 13.034 167.865 12.902C167.997 12.77 168.159 12.704 168.351 12.704C168.543 12.704 168.702 12.77 168.828 12.902C168.954 13.034 169.017 13.202 169.017 13.406C169.017 13.61 168.954 13.778 168.828 13.91C168.702 14.042 168.543 14.108 168.351 14.108ZM172.501 14V12.524H169.972V11.822L172.24 8.276H173.473V11.723H174.193V12.524H173.473V14H172.501ZM170.998 11.723H172.501V10.427C172.501 10.259 172.504 10.061 172.51 9.833C172.522 9.605 172.534 9.407 172.546 9.239H172.51C172.438 9.389 172.363 9.536 172.285 9.68C172.207 9.824 172.126 9.974 172.042 10.13L170.998 11.723ZM176.816 14.108C176.354 14.108 175.964 14.03 175.646 13.874C175.334 13.712 175.073 13.526 174.863 13.316L175.34 12.65C175.514 12.812 175.709 12.956 175.925 13.082C176.141 13.202 176.393 13.262 176.681 13.262C177.005 13.262 177.269 13.166 177.473 12.974C177.683 12.782 177.788 12.512 177.788 12.164C177.788 11.822 177.692 11.558 177.5 11.372C177.308 11.186 177.053 11.093 176.735 11.093C176.549 11.093 176.393 11.12 176.267 11.174C176.141 11.222 175.991 11.303 175.817 11.417L175.322 11.102L175.493 8.276H178.553V9.149H176.393L176.276 10.535C176.396 10.475 176.513 10.43 176.627 10.4C176.747 10.364 176.882 10.346 177.032 10.346C177.278 10.346 177.509 10.382 177.725 10.454C177.947 10.526 178.139 10.637 178.301 10.787C178.463 10.931 178.592 11.117 178.688 11.345C178.784 11.567 178.832 11.831 178.832 12.137C178.832 12.449 178.775 12.728 178.661 12.974C178.553 13.22 178.406 13.427 178.22 13.595C178.034 13.763 177.818 13.892 177.572 13.982C177.332 14.066 177.08 14.108 176.816 14.108Z" fill="#9A9A9A"/>
<path d="M170.772 0.5V5.5" stroke="#9A9A9A" stroke-linecap="square"/>
<path d="M197.032 14.108C196.432 14.108 195.958 13.853 195.61 13.343C195.262 12.827 195.088 12.083 195.088 11.111C195.088 10.139 195.262 9.407 195.61 8.915C195.958 8.417 196.432 8.168 197.032 8.168C197.632 8.168 198.106 8.417 198.454 8.915C198.802 9.413 198.976 10.145 198.976 11.111C198.976 12.083 198.802 12.827 198.454 13.343C198.106 13.853 197.632 14.108 197.032 14.108ZM197.032 13.298C197.17 13.298 197.296 13.262 197.41 13.19C197.53 13.112 197.632 12.986 197.716 12.812C197.8 12.638 197.866 12.413 197.914 12.137C197.962 11.861 197.986 11.519 197.986 11.111C197.986 10.709 197.962 10.373 197.914 10.103C197.866 9.827 197.8 9.605 197.716 9.437C197.632 9.269 197.53 9.152 197.41 9.086C197.296 9.014 197.17 8.978 197.032 8.978C196.894 8.978 196.765 9.014 196.645 9.086C196.531 9.152 196.432 9.269 196.348 9.437C196.264 9.605 196.198 9.827 196.15 10.103C196.102 10.373 196.078 10.709 196.078 11.111C196.078 11.519 196.102 11.861 196.15 12.137C196.198 12.413 196.264 12.638 196.348 12.812C196.432 12.986 196.531 13.112 196.645 13.19C196.765 13.262 196.894 13.298 197.032 13.298ZM200.806 14.108C200.614 14.108 200.452 14.042 200.32 13.91C200.194 13.778 200.131 13.61 200.131 13.406C200.131 13.202 200.194 13.034 200.32 12.902C200.452 12.77 200.614 12.704 200.806 12.704C200.998 12.704 201.157 12.77 201.283 12.902C201.409 13.034 201.472 13.202 201.472 13.406C201.472 13.61 201.409 13.778 201.283 13.91C201.157 14.042 200.998 14.108 200.806 14.108ZM204.74 14.108C204.458 14.108 204.191 14.054 203.939 13.946C203.687 13.832 203.465 13.661 203.273 13.433C203.087 13.205 202.937 12.914 202.823 12.56C202.715 12.206 202.661 11.789 202.661 11.309C202.661 10.751 202.724 10.274 202.85 9.878C202.976 9.482 203.141 9.158 203.345 8.906C203.555 8.654 203.795 8.468 204.065 8.348C204.335 8.228 204.617 8.168 204.911 8.168C205.259 8.168 205.556 8.231 205.802 8.357C206.054 8.483 206.267 8.636 206.441 8.816L205.883 9.446C205.781 9.32 205.646 9.218 205.478 9.14C205.316 9.056 205.148 9.014 204.974 9.014C204.794 9.014 204.623 9.05 204.461 9.122C204.305 9.194 204.167 9.314 204.047 9.482C203.927 9.644 203.828 9.86 203.75 10.13C203.678 10.4 203.636 10.733 203.624 11.129C203.792 10.919 203.987 10.754 204.209 10.634C204.437 10.514 204.656 10.454 204.866 10.454C205.112 10.454 205.337 10.49 205.541 10.562C205.751 10.634 205.928 10.745 206.072 10.895C206.222 11.039 206.336 11.222 206.414 11.444C206.498 11.666 206.54 11.927 206.54 12.227C206.54 12.515 206.492 12.776 206.396 13.01C206.3 13.238 206.171 13.433 206.009 13.595C205.847 13.757 205.655 13.883 205.433 13.973C205.217 14.063 204.986 14.108 204.74 14.108ZM204.722 13.316C204.962 13.316 205.163 13.223 205.325 13.037C205.493 12.851 205.577 12.581 205.577 12.227C205.577 11.885 205.499 11.63 205.343 11.462C205.187 11.294 204.965 11.21 204.677 11.21C204.515 11.21 204.344 11.261 204.164 11.363C203.984 11.459 203.813 11.627 203.651 11.867C203.705 12.377 203.825 12.746 204.011 12.974C204.203 13.202 204.44 13.316 204.722 13.316ZM209.406 14.108C208.806 14.108 208.332 13.853 207.984 13.343C207.636 12.827 207.462 12.083 207.462 11.111C207.462 10.139 207.636 9.407 207.984 8.915C208.332 8.417 208.806 8.168 209.406 8.168C210.006 8.168 210.48 8.417 210.828 8.915C211.176 9.413 211.35 10.145 211.35 11.111C211.35 12.083 211.176 12.827 210.828 13.343C210.48 13.853 210.006 14.108 209.406 14.108ZM209.406 13.298C209.544 13.298 209.67 13.262 209.784 13.19C209.904 13.112 210.006 12.986 210.09 12.812C210.174 12.638 210.24 12.413 210.288 12.137C210.336 11.861 210.36 11.519 210.36 11.111C210.36 10.709 210.336 10.373 210.288 10.103C210.24 9.827 210.174 9.605 210.09 9.437C210.006 9.269 209.904 9.152 209.784 9.086C209.67 9.014 209.544 8.978 209.406 8.978C209.268 8.978 209.139 9.014 209.019 9.086C208.905 9.152 208.806 9.269 208.722 9.437C208.638 9.605 208.572 9.827 208.524 10.103C208.476 10.373 208.452 10.709 208.452 11.111C208.452 11.519 208.476 11.861 208.524 12.137C208.572 12.413 208.638 12.638 208.722 12.812C208.806 12.986 208.905 13.112 209.019 13.19C209.139 13.262 209.268 13.298 209.406 13.298Z" fill="#9A9A9A"/>
<path d="M203.228 0.5V5.5" stroke="#9A9A9A" stroke-linecap="square"/>
<path d="M229.486 14.108C228.886 14.108 228.412 13.853 228.064 13.343C227.716 12.827 227.542 12.083 227.542 11.111C227.542 10.139 227.716 9.407 228.064 8.915C228.412 8.417 228.886 8.168 229.486 8.168C230.086 8.168 230.56 8.417 230.908 8.915C231.256 9.413 231.43 10.145 231.43 11.111C231.43 12.083 231.256 12.827 230.908 13.343C230.56 13.853 230.086 14.108 229.486 14.108ZM229.486 13.298C229.624 13.298 229.75 13.262 229.864 13.19C229.984 13.112 230.086 12.986 230.17 12.812C230.254 12.638 230.32 12.413 230.368 12.137C230.416 11.861 230.44 11.519 230.44 11.111C230.44 10.709 230.416 10.373 230.368 10.103C230.32 9.827 230.254 9.605 230.17 9.437C230.086 9.269 229.984 9.152 229.864 9.086C229.75 9.014 229.624 8.978 229.486 8.978C229.348 8.978 229.219 9.014 229.099 9.086C228.985 9.152 228.886 9.269 228.802 9.437C228.718 9.605 228.652 9.827 228.604 10.103C228.556 10.373 228.532 10.709 228.532 11.111C228.532 11.519 228.556 11.861 228.604 12.137C228.652 12.413 228.718 12.638 228.802 12.812C228.886 12.986 228.985 13.112 229.099 13.19C229.219 13.262 229.348 13.298 229.486 13.298ZM233.26 14.108C233.068 14.108 232.906 14.042 232.774 13.91C232.648 13.778 232.585 13.61 232.585 13.406C232.585 13.202 232.648 13.034 232.774 12.902C232.906 12.77 233.068 12.704 233.26 12.704C233.452 12.704 233.611 12.77 233.737 12.902C233.863 13.034 233.926 13.202 233.926 13.406C233.926 13.61 233.863 13.778 233.737 13.91C233.611 14.042 233.452 14.108 233.26 14.108ZM237.032 14.108C236.75 14.108 236.489 14.069 236.249 13.991C236.015 13.913 235.811 13.805 235.637 13.667C235.469 13.529 235.334 13.364 235.232 13.172C235.136 12.98 235.088 12.767 235.088 12.533C235.088 12.353 235.115 12.191 235.169 12.047C235.229 11.897 235.307 11.762 235.403 11.642C235.499 11.522 235.607 11.414 235.727 11.318C235.853 11.222 235.985 11.138 236.123 11.066V11.03C235.901 10.874 235.712 10.688 235.556 10.472C235.406 10.256 235.331 9.995 235.331 9.689C235.331 9.455 235.373 9.245 235.457 9.059C235.547 8.873 235.667 8.714 235.817 8.582C235.973 8.45 236.156 8.348 236.366 8.276C236.582 8.204 236.813 8.168 237.059 8.168C237.317 8.168 237.548 8.207 237.752 8.285C237.962 8.357 238.139 8.462 238.283 8.6C238.433 8.732 238.547 8.894 238.625 9.086C238.703 9.272 238.742 9.482 238.742 9.716C238.742 9.86 238.718 9.998 238.67 10.13C238.628 10.256 238.571 10.376 238.499 10.49C238.427 10.598 238.343 10.7 238.247 10.796C238.157 10.886 238.067 10.964 237.977 11.03V11.066C238.109 11.138 238.235 11.222 238.355 11.318C238.475 11.408 238.58 11.513 238.67 11.633C238.76 11.753 238.832 11.888 238.886 12.038C238.94 12.188 238.967 12.359 238.967 12.551C238.967 12.773 238.919 12.98 238.823 13.172C238.733 13.358 238.604 13.523 238.436 13.667C238.268 13.805 238.064 13.913 237.824 13.991C237.584 14.069 237.32 14.108 237.032 14.108ZM237.41 10.769C237.566 10.613 237.683 10.454 237.761 10.292C237.845 10.13 237.887 9.959 237.887 9.779C237.887 9.527 237.812 9.32 237.662 9.158C237.518 8.99 237.311 8.906 237.041 8.906C236.819 8.906 236.633 8.975 236.483 9.113C236.333 9.245 236.258 9.437 236.258 9.689C236.258 9.833 236.288 9.959 236.348 10.067C236.408 10.175 236.489 10.271 236.591 10.355C236.699 10.433 236.822 10.508 236.96 10.58C237.098 10.646 237.248 10.709 237.41 10.769ZM237.05 13.37C237.326 13.37 237.551 13.295 237.725 13.145C237.905 12.995 237.995 12.785 237.995 12.515C237.995 12.359 237.959 12.227 237.887 12.119C237.815 12.005 237.716 11.906 237.59 11.822C237.47 11.732 237.326 11.651 237.158 11.579C236.99 11.507 236.81 11.432 236.618 11.354C236.438 11.486 236.288 11.642 236.168 11.822C236.054 12.002 235.997 12.203 235.997 12.425C235.997 12.713 236.099 12.944 236.303 13.118C236.507 13.286 236.756 13.37 237.05 13.37ZM241.86 14.108C241.26 14.108 240.786 13.853 240.438 13.343C240.09 12.827 239.916 12.083 239.916 11.111C239.916 10.139 240.09 9.407 240.438 8.915C240.786 8.417 241.26 8.168 241.86 8.168C242.46 8.168 242.934 8.417 243.282 8.915C243.63 9.413 243.804 10.145 243.804 11.111C243.804 12.083 243.63 12.827 243.282 13.343C242.934 13.853 242.46 14.108 241.86 14.108ZM241.86 13.298C241.998 13.298 242.124 13.262 242.238 13.19C242.358 13.112 242.46 12.986 242.544 12.812C242.628 12.638 242.694 12.413 242.742 12.137C242.79 11.861 242.814 11.519 242.814 11.111C242.814 10.709 242.79 10.373 242.742 10.103C242.694 9.827 242.628 9.605 242.544 9.437C242.46 9.269 242.358 9.152 242.238 9.086C242.124 9.014 241.998 8.978 241.86 8.978C241.722 8.978 241.593 9.014 241.473 9.086C241.359 9.152 241.26 9.269 241.176 9.437C241.092 9.605 241.026 9.827 240.978 10.103C240.93 10.373 240.906 10.709 240.906 11.111C240.906 11.519 240.93 11.861 240.978 12.137C241.026 12.413 241.092 12.638 241.176 12.812C241.26 12.986 241.359 13.112 241.473 13.19C241.593 13.262 241.722 13.298 241.86 13.298Z" fill="#9A9A9A"/>
<path d="M235.682 0.5V5.5" stroke="#9A9A9A" stroke-linecap="square"/>
<path d="M261.941 14.108C261.341 14.108 260.867 13.853 260.519 13.343C260.171 12.827 259.997 12.083 259.997 11.111C259.997 10.139 260.171 9.407 260.519 8.915C260.867 8.417 261.341 8.168 261.941 8.168C262.541 8.168 263.015 8.417 263.363 8.915C263.711 9.413 263.885 10.145 263.885 11.111C263.885 12.083 263.711 12.827 263.363 13.343C263.015 13.853 262.541 14.108 261.941 14.108ZM261.941 13.298C262.079 13.298 262.205 13.262 262.319 13.19C262.439 13.112 262.541 12.986 262.625 12.812C262.709 12.638 262.775 12.413 262.823 12.137C262.871 11.861 262.895 11.519 262.895 11.111C262.895 10.709 262.871 10.373 262.823 10.103C262.775 9.827 262.709 9.605 262.625 9.437C262.541 9.269 262.439 9.152 262.319 9.086C262.205 9.014 262.079 8.978 261.941 8.978C261.803 8.978 261.674 9.014 261.554 9.086C261.44 9.152 261.341 9.269 261.257 9.437C261.173 9.605 261.107 9.827 261.059 10.103C261.011 10.373 260.987 10.709 260.987 11.111C260.987 11.519 261.011 11.861 261.059 12.137C261.107 12.413 261.173 12.638 261.257 12.812C261.341 12.986 261.44 13.112 261.554 13.19C261.674 13.262 261.803 13.298 261.941 13.298ZM265.715 14.108C265.523 14.108 265.361 14.042 265.229 13.91C265.103 13.778 265.04 13.61 265.04 13.406C265.04 13.202 265.103 13.034 265.229 12.902C265.361 12.77 265.523 12.704 265.715 12.704C265.907 12.704 266.066 12.77 266.192 12.902C266.318 13.034 266.381 13.202 266.381 13.406C266.381 13.61 266.318 13.778 266.192 13.91C266.066 14.042 265.907 14.108 265.715 14.108ZM269.37 11.066C269.538 11.066 269.712 11.015 269.892 10.913C270.078 10.805 270.246 10.634 270.396 10.4C270.342 9.896 270.216 9.53 270.018 9.302C269.826 9.074 269.592 8.96 269.316 8.96C269.082 8.96 268.881 9.053 268.713 9.239C268.545 9.425 268.461 9.692 268.461 10.04C268.461 10.382 268.539 10.64 268.695 10.814C268.857 10.982 269.082 11.066 269.37 11.066ZM269.127 14.108C268.785 14.108 268.488 14.045 268.236 13.919C267.984 13.793 267.771 13.64 267.597 13.46L268.155 12.83C268.263 12.956 268.398 13.061 268.56 13.145C268.728 13.223 268.899 13.262 269.073 13.262C269.253 13.262 269.421 13.226 269.577 13.154C269.739 13.082 269.88 12.965 270 12.803C270.12 12.635 270.216 12.416 270.288 12.146C270.366 11.876 270.411 11.543 270.423 11.147C270.255 11.357 270.057 11.522 269.829 11.642C269.601 11.756 269.382 11.813 269.172 11.813C268.926 11.813 268.701 11.777 268.497 11.705C268.293 11.633 268.116 11.525 267.966 11.381C267.822 11.231 267.708 11.045 267.624 10.823C267.546 10.601 267.507 10.34 267.507 10.04C267.507 9.752 267.555 9.494 267.651 9.266C267.747 9.032 267.876 8.834 268.038 8.672C268.2 8.51 268.389 8.387 268.605 8.303C268.827 8.213 269.061 8.168 269.307 8.168C269.583 8.168 269.847 8.225 270.099 8.339C270.351 8.447 270.57 8.615 270.756 8.843C270.948 9.071 271.098 9.362 271.206 9.716C271.32 10.064 271.377 10.478 271.377 10.958C271.377 11.516 271.314 11.993 271.188 12.389C271.068 12.785 270.903 13.112 270.693 13.37C270.489 13.622 270.249 13.808 269.973 13.928C269.703 14.048 269.421 14.108 269.127 14.108ZM274.171 14.108C273.703 14.108 273.313 14.03 273.001 13.874C272.689 13.718 272.431 13.526 272.227 13.298L272.722 12.632C272.896 12.806 273.094 12.956 273.316 13.082C273.538 13.202 273.793 13.262 274.081 13.262C274.393 13.262 274.645 13.187 274.837 13.037C275.035 12.881 275.134 12.668 275.134 12.398C275.134 12.248 275.107 12.113 275.053 11.993C274.999 11.873 274.906 11.771 274.774 11.687C274.648 11.603 274.477 11.54 274.261 11.498C274.045 11.45 273.775 11.426 273.451 11.426V10.67C273.733 10.67 273.967 10.649 274.153 10.607C274.345 10.559 274.498 10.496 274.612 10.418C274.732 10.334 274.816 10.235 274.864 10.121C274.918 10.007 274.945 9.884 274.945 9.752C274.945 9.512 274.87 9.326 274.72 9.194C274.57 9.056 274.363 8.987 274.099 8.987C273.871 8.987 273.664 9.038 273.478 9.14C273.298 9.236 273.121 9.365 272.947 9.527L272.416 8.888C272.662 8.672 272.923 8.498 273.199 8.366C273.481 8.234 273.793 8.168 274.135 8.168C274.411 8.168 274.663 8.201 274.891 8.267C275.119 8.333 275.314 8.432 275.476 8.564C275.638 8.69 275.764 8.849 275.854 9.041C275.944 9.227 275.989 9.44 275.989 9.68C275.989 10.004 275.899 10.274 275.719 10.49C275.545 10.706 275.302 10.874 274.99 10.994V11.03C275.332 11.12 275.614 11.285 275.836 11.525C276.064 11.765 276.178 12.074 276.178 12.452C276.178 12.716 276.124 12.95 276.016 13.154C275.914 13.358 275.77 13.532 275.584 13.676C275.404 13.814 275.191 13.922 274.945 14C274.705 14.072 274.447 14.108 274.171 14.108Z" fill="#9A9A9A"/>
<path d="M268.137 0.5V5.5" stroke="#9A9A9A" stroke-linecap="square"/>
<path d="M292.757 14V13.154H294.035V9.392H292.982V8.744C293.27 8.69 293.516 8.627 293.72 8.555C293.93 8.477 294.125 8.384 294.305 8.276H295.079V13.154H296.204V14H292.757ZM298.169 14.108C297.977 14.108 297.815 14.042 297.683 13.91C297.557 13.778 297.494 13.61 297.494 13.406C297.494 13.202 297.557 13.034 297.683 12.902C297.815 12.77 297.977 12.704 298.169 12.704C298.361 12.704 298.52 12.77 298.646 12.902C298.772 13.034 298.835 13.202 298.835 13.406C298.835 13.61 298.772 13.778 298.646 13.91C298.52 14.042 298.361 14.108 298.169 14.108ZM301.932 14.108C301.332 14.108 300.858 13.853 300.51 13.343C300.162 12.827 299.988 12.083 299.988 11.111C299.988 10.139 300.162 9.407 300.51 8.915C300.858 8.417 301.332 8.168 301.932 8.168C302.532 8.168 303.006 8.417 303.354 8.915C303.702 9.413 303.876 10.145 303.876 11.111C303.876 12.083 303.702 12.827 303.354 13.343C303.006 13.853 302.532 14.108 301.932 14.108ZM301.932 13.298C302.07 13.298 302.196 13.262 302.31 13.19C302.43 13.112 302.532 12.986 302.616 12.812C302.7 12.638 302.766 12.413 302.814 12.137C302.862 11.861 302.886 11.519 302.886 11.111C302.886 10.709 302.862 10.373 302.814 10.103C302.766 9.827 302.7 9.605 302.616 9.437C302.532 9.269 302.43 9.152 302.31 9.086C302.196 9.014 302.07 8.978 301.932 8.978C301.794 8.978 301.665 9.014 301.545 9.086C301.431 9.152 301.332 9.269 301.248 9.437C301.164 9.605 301.098 9.827 301.05 10.103C301.002 10.373 300.978 10.709 300.978 11.111C300.978 11.519 301.002 11.861 301.05 12.137C301.098 12.413 301.164 12.638 301.248 12.812C301.332 12.986 301.431 13.112 301.545 13.19C301.665 13.262 301.794 13.298 301.932 13.298ZM306.769 14.108C306.169 14.108 305.695 13.853 305.347 13.343C304.999 12.827 304.825 12.083 304.825 11.111C304.825 10.139 304.999 9.407 305.347 8.915C305.695 8.417 306.169 8.168 306.769 8.168C307.369 8.168 307.843 8.417 308.191 8.915C308.539 9.413 308.713 10.145 308.713 11.111C308.713 12.083 308.539 12.827 308.191 13.343C307.843 13.853 307.369 14.108 306.769 14.108ZM306.769 13.298C306.907 13.298 307.033 13.262 307.147 13.19C307.267 13.112 307.369 12.986 307.453 12.812C307.537 12.638 307.603 12.413 307.651 12.137C307.699 11.861 307.723 11.519 307.723 11.111C307.723 10.709 307.699 10.373 307.651 10.103C307.603 9.827 307.537 9.605 307.453 9.437C307.369 9.269 307.267 9.152 307.147 9.086C307.033 9.014 306.907 8.978 306.769 8.978C306.631 8.978 306.502 9.014 306.382 9.086C306.268 9.152 306.169 9.269 306.085 9.437C306.001 9.605 305.935 9.827 305.887 10.103C305.839 10.373 305.815 10.709 305.815 11.111C305.815 11.519 305.839 11.861 305.887 12.137C305.935 12.413 306.001 12.638 306.085 12.812C306.169 12.986 306.268 13.112 306.382 13.19C306.502 13.262 306.631 13.298 306.769 13.298Z" fill="#9A9A9A"/>
<path d="M300.591 0.5V5.5" stroke="#9A9A9A" stroke-linecap="square"/>
<path d="M325.212 14V13.154H326.49V9.392H325.437V8.744C325.725 8.69 325.971 8.627 326.175 8.555C326.385 8.477 326.58 8.384 326.76 8.276H327.534V13.154H328.659V14H325.212ZM330.625 14.108C330.433 14.108 330.271 14.042 330.139 13.91C330.013 13.778 329.95 13.61 329.95 13.406C329.95 13.202 330.013 13.034 330.139 12.902C330.271 12.77 330.433 12.704 330.625 12.704C330.817 12.704 330.976 12.77 331.102 12.902C331.228 13.034 331.291 13.202 331.291 13.406C331.291 13.61 331.228 13.778 331.102 13.91C330.976 14.042 330.817 14.108 330.625 14.108ZM332.749 14V13.154H334.027V9.392H332.974V8.744C333.262 8.69 333.508 8.627 333.712 8.555C333.922 8.477 334.117 8.384 334.297 8.276H335.071V13.154H336.196V14H332.749ZM339.089 14.108C338.627 14.108 338.237 14.03 337.919 13.874C337.607 13.712 337.346 13.526 337.136 13.316L337.613 12.65C337.787 12.812 337.982 12.956 338.198 13.082C338.414 13.202 338.666 13.262 338.954 13.262C339.278 13.262 339.542 13.166 339.746 12.974C339.956 12.782 340.061 12.512 340.061 12.164C340.061 11.822 339.965 11.558 339.773 11.372C339.581 11.186 339.326 11.093 339.008 11.093C338.822 11.093 338.666 11.12 338.54 11.174C338.414 11.222 338.264 11.303 338.09 11.417L337.595 11.102L337.766 8.276H340.826V9.149H338.666L338.549 10.535C338.669 10.475 338.786 10.43 338.9 10.4C339.02 10.364 339.155 10.346 339.305 10.346C339.551 10.346 339.782 10.382 339.998 10.454C340.22 10.526 340.412 10.637 340.574 10.787C340.736 10.931 340.865 11.117 340.961 11.345C341.057 11.567 341.105 11.831 341.105 12.137C341.105 12.449 341.048 12.728 340.934 12.974C340.826 13.22 340.679 13.427 340.493 13.595C340.307 13.763 340.091 13.892 339.845 13.982C339.605 14.066 339.353 14.108 339.089 14.108Z" fill="#9A9A9A"/>
<path d="M333.046 0.5V5.5" stroke="#9A9A9A" stroke-linecap="square"/>
<path d="M357.666 14V13.154H358.944V9.392H357.891V8.744C358.179 8.69 358.425 8.627 358.629 8.555C358.839 8.477 359.034 8.384 359.214 8.276H359.988V13.154H361.113V14H357.666ZM363.079 14.108C362.887 14.108 362.725 14.042 362.593 13.91C362.467 13.778 362.404 13.61 362.404 13.406C362.404 13.202 362.467 13.034 362.593 12.902C362.725 12.77 362.887 12.704 363.079 12.704C363.271 12.704 363.43 12.77 363.556 12.902C363.682 13.034 363.745 13.202 363.745 13.406C363.745 13.61 363.682 13.778 363.556 13.91C363.43 14.042 363.271 14.108 363.079 14.108ZM365.203 14V13.154H366.481V9.392H365.428V8.744C365.716 8.69 365.962 8.627 366.166 8.555C366.376 8.477 366.571 8.384 366.751 8.276H367.525V13.154H368.65V14H365.203ZM371.543 14.108C371.081 14.108 370.691 14.03 370.373 13.874C370.061 13.712 369.8 13.526 369.59 13.316L370.067 12.65C370.241 12.812 370.436 12.956 370.652 13.082C370.868 13.202 371.12 13.262 371.408 13.262C371.732 13.262 371.996 13.166 372.2 12.974C372.41 12.782 372.515 12.512 372.515 12.164C372.515 11.822 372.419 11.558 372.227 11.372C372.035 11.186 371.78 11.093 371.462 11.093C371.276 11.093 371.12 11.12 370.994 11.174C370.868 11.222 370.718 11.303 370.544 11.417L370.049 11.102L370.22 8.276H373.28V9.149H371.12L371.003 10.535C371.123 10.475 371.24 10.43 371.354 10.4C371.474 10.364 371.609 10.346 371.759 10.346C372.005 10.346 372.236 10.382 372.452 10.454C372.674 10.526 372.866 10.637 373.028 10.787C373.19 10.931 373.319 11.117 373.415 11.345C373.511 11.567 373.559 11.831 373.559 12.137C373.559 12.449 373.502 12.728 373.388 12.974C373.28 13.22 373.133 13.427 372.947 13.595C372.761 13.763 372.545 13.892 372.299 13.982C372.059 14.066 371.807 14.108 371.543 14.108Z" fill="#9A9A9A"/>
<path d="M365.5 0.5V5.5" stroke="#9A9A9A" stroke-linecap="square"/>
</svg>
