<svg width="7" height="28" viewBox="0 0 7 28" fill="none" xmlns="http://www.w3.org/2000/svg">
<path fill-rule="evenodd" clip-rule="evenodd" d="M3.5 5C4.88071 5 6 3.88071 6 2.49999C6 1.11928 4.88071 -1.52588e-05 3.5 -1.52588e-05C2.11929 -1.52588e-05 1 1.11928 1 2.49999C1 3.88071 2.11929 5 3.5 5Z" fill="#D1D1D1"/>
<path fill-rule="evenodd" clip-rule="evenodd" d="M3.5 18C5.433 18 7 16.433 7 14.5C7 12.567 5.433 11 3.5 11C1.567 11 0 12.567 0 14.5C0 16.433 1.567 18 3.5 18Z" fill="#73D07D"/>
<path fill-rule="evenodd" clip-rule="evenodd" d="M3.5 28C4.88071 28 6 26.8807 6 25.5C6 24.1193 4.88071 23 3.5 23C2.11929 23 1 24.1193 1 25.5C1 26.8807 2.11929 28 3.5 28Z" fill="#D1D1D1"/>
</svg>
